<svg width="101" height="100" viewBox="0 0 101 100" fill="none" xmlns="http://www.w3.org/2000/svg">
<path d="M66.9167 66.6667C76.1214 66.6667 83.5833 59.2048 83.5833 50C83.5833 40.7953 76.1214 33.3333 66.9167 33.3333C57.7119 33.3333 50.25 40.7953 50.25 50C50.25 59.2048 57.7119 66.6667 66.9167 66.6667Z" fill="#19BCFE"/>
<path fill-rule="evenodd" clip-rule="evenodd" d="M33.5833 100C42.7881 100 50.25 92.5381 50.25 83.3334C50.25 80.8206 50.25 75.2651 50.25 66.6667C42.7627 66.6667 37.2071 66.6667 33.5833 66.6667C24.3786 66.6667 16.9167 74.1286 16.9167 83.3334C16.9167 92.5381 24.3786 100 33.5833 100Z" fill="#09CF83"/>
<path fill-rule="evenodd" clip-rule="evenodd" d="M33.5833 66.6667C36.6516 66.6667 42.2071 66.6667 50.25 66.6667V33.3333C42.2071 33.3333 36.6516 33.3333 33.5833 33.3333C24.3786 33.3333 16.9167 40.7953 16.9167 50C16.9167 59.2048 24.3786 66.6667 33.5833 66.6667Z" fill="#A259FF"/>
<path fill-rule="evenodd" clip-rule="evenodd" d="M33.5833 33.3333C36.6516 33.3333 42.2071 33.3333 50.25 33.3333V0C42.2071 0 36.6516 0 33.5833 0C24.3786 0 16.9167 7.46192 16.9167 16.6667C16.9167 25.8714 24.3786 33.3333 33.5833 33.3333Z" fill="#F24E1E"/>
<path fill-rule="evenodd" clip-rule="evenodd" d="M66.9167 33.3333H50.25V0H66.9167C76.1214 0 83.5833 7.46192 83.5833 16.6667C83.5833 25.8714 76.1214 33.3333 66.9167 33.3333Z" fill="#FF7262"/>
</svg>
