<svg width="101" height="100" viewBox="0 0 101 100" fill="none" xmlns="http://www.w3.org/2000/svg">
<g clip-path="url(#clip0_123_95)">
<path d="M98.3641 45.5443L54.7026 1.88611C52.1899 -0.628705 48.1116 -0.628705 45.5957 1.88611L36.5294 10.9524L48.0304 22.4534C50.7032 21.5504 53.7677 22.1561 55.8985 24.2869C58.0392 26.4308 58.6405 29.5217 57.7155 32.2033L68.7996 43.2874C71.4812 42.3635 74.5753 42.9615 76.7171 45.1066C79.7103 48.0987 79.7103 52.9484 76.7171 55.9427C73.7228 58.937 68.8731 58.937 65.8777 55.9427C63.6262 53.689 63.0699 50.382 64.2099 47.6082L53.8731 37.2713L53.872 64.4735C54.6016 64.8356 55.2907 65.3173 55.8985 65.9229C58.8917 68.915 58.8917 73.7647 55.8985 76.7612C52.9042 79.7544 48.0524 79.7544 45.0624 76.7612C42.0692 73.7647 42.0692 68.915 45.0624 65.9229C45.802 65.1845 46.6578 64.626 47.5707 64.2508V36.7951C46.6578 36.4221 45.8031 35.8669 45.0624 35.123C42.7945 32.8583 42.2492 29.5305 43.4111 26.7457L32.0747 15.4071L2.13718 45.3425C-0.378735 47.8595 -0.378735 51.9378 2.13718 54.4526L45.7987 98.112C48.3124 100.627 52.3896 100.627 54.9067 98.112L98.3641 54.6556C100.879 52.1397 100.879 48.0592 98.3641 45.5443Z" fill="#DE4C36"/>
</g>
<defs>
<clipPath id="clip0_123_95">
<rect width="100" height="100" fill="white" transform="translate(0.25)"/>
</clipPath>
</defs>
</svg>
