<svg width="25" height="26" viewBox="0 0 25 26" fill="none" xmlns="http://www.w3.org/2000/svg">
<path d="M5.68182 22.8174V13.1583L2.68619 10.4178L0 8.89697V21.1129C0 22.0561 0.764205 22.8174 1.70455 22.8174H5.68182Z" fill="#4285F4"/>
<path d="M19.3182 22.8174H23.2955C24.2386 22.8174 25 22.0532 25 21.1129V8.89697L21.9575 10.639L19.3182 13.1583V22.8174Z" fill="#34A853"/>
<path d="M5.68182 13.1583L5.2742 9.3842L5.68182 5.77197L12.5 10.8856L19.3182 5.77197L19.7742 9.18915L19.3182 13.1583L12.5 18.272L5.68182 13.1583Z" fill="#EA4335"/>
<path d="M19.3182 5.77188V13.1582L25 8.89688V6.62415C25 4.5162 22.5938 3.31449 20.9091 4.5787L19.3182 5.77188Z" fill="#FBBC04"/>
<path d="M0 8.89688L2.61316 10.8568L5.68182 13.1582V5.77188L4.09091 4.5787C2.40341 3.31449 0 4.5162 0 6.62415V8.89688Z" fill="#C5221F"/>
</svg>
