<svg width="101" height="100" viewBox="0 0 101 100" fill="none" xmlns="http://www.w3.org/2000/svg">
<path fill-rule="evenodd" clip-rule="evenodd" d="M85.4274 0H13.4237C8.4547 0 4.41669 4.02695 4.41669 9.00703V91.0013C4.41669 95.973 8.4547 100 13.4237 100H85.4274C90.3978 100 94.4233 95.973 94.4233 91.0013V9.00703C94.4233 4.02695 90.3978 0 85.4274 0ZM89.4225 91.0013C89.4225 93.2091 87.6338 94.9964 85.4274 94.9964H13.4237C11.2186 94.9964 9.41752 93.2091 9.41752 91.0013V9.00703C9.41752 6.79089 11.2186 5.00083 13.4237 5.00083H85.4274C87.6338 5.00083 89.4225 6.79089 89.4225 9.00703V91.0013ZM26.9182 85.0057L38.176 75.0012L26.9182 64.9996V85.0057ZM67.5739 44.4678C65.5501 42.4329 61.8551 40.0023 55.6757 40.0023C48.8959 40.0023 41.9127 41.7689 36.9215 43.386V15.0051H26.9185V58.3692L33.9874 55.1667C34.105 55.1141 45.5011 50.0054 55.6757 50.0054C60.7512 50.0054 61.8759 52.7998 61.9298 55.1349V85.0057H71.9218V55.0062C71.9329 54.3643 71.8692 48.8157 67.5739 44.4678ZM54.4221 31.2517H64.4251C68.9445 26.1319 71.2478 20.6814 71.9229 15.0041H61.9296C60.816 20.6704 58.3522 26.089 54.4221 31.2517Z" fill="#6762A6"/>
</svg>
