<svg width="60" height="61" viewBox="0 0 60 61" fill="none" xmlns="http://www.w3.org/2000/svg">
<g clip-path="url(#clip0_133_72)">
<path d="M54.5725 0.486328H5.42749C2.43 0.486328 0 2.91633 0 5.91382V55.0587C0 58.0563 2.43 60.4863 5.42749 60.4863H54.5724C57.57 60.4863 60 58.0563 60 55.0587V5.91382C60 2.91633 57.57 0.486328 54.5725 0.486328ZM18.5665 52.2943C18.5665 53.1666 17.8594 53.8738 16.9871 53.8738H10.2636C9.39126 53.8738 8.68414 53.1666 8.68414 52.2943V24.1098C8.68414 23.2375 9.39126 22.5304 10.2636 22.5304H16.9871C17.8594 22.5304 18.5665 23.2375 18.5665 24.1098V52.2943ZM13.6253 19.8736C10.0977 19.8736 7.23801 17.0138 7.23801 13.4862C7.23801 9.95863 10.0977 7.09889 13.6253 7.09889C17.1529 7.09889 20.0127 9.95863 20.0127 13.4862C20.0127 17.0138 17.1531 19.8736 13.6253 19.8736ZM53.7031 52.4215C53.7031 53.2235 53.0529 53.8738 52.2509 53.8738H45.0361C44.2341 53.8738 43.5839 53.2235 43.5839 52.4215V39.2014C43.5839 37.2293 44.1624 30.5594 38.43 30.5594C33.9836 30.5594 33.0817 35.1247 32.9006 37.1735V52.4215C32.9006 53.2235 32.2505 53.8738 31.4483 53.8738H24.4704C23.6684 53.8738 23.0182 53.2235 23.0182 52.4215V23.9826C23.0182 23.1806 23.6684 22.5304 24.4704 22.5304H31.4483C32.2503 22.5304 32.9006 23.1806 32.9006 23.9826V26.4415C34.5493 23.9672 36.9996 22.0574 42.2166 22.0574C53.7693 22.0574 53.7031 32.8505 53.7031 38.7808V52.4215Z" fill="#0077B7"/>
</g>
<defs>
<clipPath id="clip0_133_72">
<rect width="60" height="60" fill="white" transform="translate(0 0.486328)"/>
</clipPath>
</defs>
</svg>
