<svg width="101" height="100" viewBox="0 0 101 100" fill="none" xmlns="http://www.w3.org/2000/svg">
<g clip-path="url(#clip0_123_199)">
<path d="M30.8603 71.3222H28.1531C28.0573 66.7525 27.7937 62.4564 27.3626 58.4308H27.3385L23.2166 71.3222H21.1555L17.0582 58.4308H17.0346C16.7307 62.2958 16.5392 66.5929 16.4597 71.3222H13.992C14.151 65.5712 14.5507 60.1796 15.1895 55.147H18.5449L22.4502 67.0323H22.4743L26.4037 55.147H29.6142C30.3173 61.0418 30.7327 66.4339 30.8603 71.3222ZM42.6013 59.3881C41.4991 65.3698 40.0447 69.7161 38.2398 72.4291C36.8336 74.5175 35.293 75.5628 33.6152 75.5628C33.1679 75.5628 32.616 75.4278 31.9621 75.16V73.7176C32.2817 73.7637 32.6568 73.7898 33.0879 73.7898C33.8716 73.7898 34.5014 73.5743 34.9817 73.1422C35.5561 72.6159 35.8433 72.0242 35.8433 71.3698C35.8433 70.9209 35.6194 70.0033 35.1726 68.6138L32.2017 59.3876H34.8614L36.9937 66.2879C37.4729 67.8547 37.6728 68.9486 37.5927 69.5717C38.7588 66.4574 39.5733 63.0617 40.0374 59.3871H42.6013V59.3881Z" fill="#5D87A1"/>
<path d="M78.6383 71.3222H70.948V55.147H73.535V69.3311H78.6383V71.3222ZM68.935 71.713L65.9614 70.2455C66.2251 70.0289 66.4772 69.7946 66.7043 69.5231C67.9682 68.0384 68.5986 65.8427 68.5986 62.9346C68.5986 57.5833 66.4987 54.9063 62.2973 54.9063C60.2371 54.9063 58.63 55.5854 57.4807 56.944C56.2178 58.4297 55.5874 60.6175 55.5874 63.51C55.5874 66.3533 56.1461 68.4391 57.2641 69.7621C58.2868 70.9607 59.8285 71.5607 61.8903 71.5607C62.6593 71.5607 63.365 71.4666 64.008 71.2766L67.8792 73.5304L68.935 71.713ZM59.3023 68.0855C58.6473 67.0318 58.3198 65.34 58.3198 63.0073C58.3198 58.9346 59.557 56.8959 62.0341 56.8959C63.3289 56.8959 64.2779 57.3834 64.8848 58.3565C65.5387 59.4117 65.8677 61.0884 65.8677 63.3886C65.8677 67.4948 64.6295 69.5482 62.1539 69.5482C60.8586 69.5487 59.9096 69.0627 59.3023 68.0855ZM54.46 66.8388C54.46 68.2105 53.9568 69.3358 52.9513 70.2173C51.9447 71.0951 50.595 71.5351 48.9037 71.5351C47.3217 71.5351 45.7878 71.0297 44.3031 70.0242L44.9984 68.6353C46.2759 69.2751 47.4326 69.5932 48.471 69.5932C49.4457 69.5932 50.2074 69.3771 50.7598 68.9486C51.3117 68.5186 51.6408 67.9154 51.6408 67.1527C51.6408 66.1917 50.9706 65.3703 49.7412 64.6824C48.6076 64.0598 46.3403 62.7582 46.3403 62.7582C45.1114 61.8626 44.4962 60.9011 44.4962 59.317C44.4962 58.006 44.955 56.9477 45.8731 56.1425C46.7923 55.3343 47.9782 54.9315 49.4321 54.9315C50.9335 54.9315 52.2984 55.3338 53.5278 56.13L52.9042 57.5195C51.8527 57.0727 50.8147 56.8493 49.7909 56.8493C48.9617 56.8493 48.3214 57.0486 47.8762 57.4488C47.4274 57.8475 47.1506 58.3575 47.1506 58.9832C47.1506 59.9395 47.8349 60.7713 49.0978 61.4729C50.2466 62.0965 52.5704 63.4206 52.5704 63.4206C53.8307 64.3146 54.46 65.2673 54.46 66.8388Z" fill="#F8981D"/>
<path d="M81.886 49.7293C80.3218 49.6895 79.1107 49.847 78.0942 50.277C77.8007 50.3942 77.3341 50.3942 77.2933 50.7651C77.4518 50.922 77.4701 51.1752 77.6077 51.3918C77.8421 51.7826 78.2506 52.3084 78.6236 52.5825C79.0333 52.8964 79.4444 53.2071 79.8755 53.4808C80.6357 53.9511 81.4973 54.2247 82.2381 54.6934C82.6696 54.966 83.0986 55.3186 83.5307 55.6121C83.7431 55.7685 83.8792 56.0222 84.1549 56.12V56.0604C84.0168 55.8846 83.9775 55.6304 83.842 55.4347L83.255 54.8687C82.688 54.107 81.9833 53.442 81.2231 52.8959C80.5975 52.4648 79.2289 51.8789 78.9752 51.158L78.9354 51.1182C79.3655 51.0779 79.8755 50.922 80.2841 50.8022C80.949 50.627 81.5553 50.6667 82.2375 50.4915C82.5514 50.413 82.8627 50.3147 83.1776 50.2179V50.0416C82.824 49.6895 82.5718 49.2218 82.1999 48.8891C81.2048 48.0296 80.1083 47.1889 78.9752 46.4852C78.3683 46.0934 77.5878 45.8412 76.9417 45.508C76.7089 45.3903 76.3166 45.3322 76.1795 45.1366C75.829 44.7065 75.6318 44.1405 75.3775 43.6315C74.8125 42.5575 74.2637 41.3657 73.7762 40.23C73.4236 39.4683 73.2091 38.7076 72.779 38.0029C70.7649 34.681 68.5777 32.6689 65.2159 30.6941C64.4934 30.2829 63.6339 30.1076 62.7158 29.8921L61.2494 29.8146C60.9366 29.6776 60.6232 29.3056 60.3501 29.1298C59.2348 28.4267 56.3632 26.9028 55.5429 28.9148C55.0146 30.1866 56.3245 31.4369 56.7744 32.082C57.1066 32.5298 57.5372 33.0393 57.7694 33.5478C57.907 33.88 57.9458 34.2326 58.0833 34.5837C58.3962 35.4437 58.6886 36.4005 59.0998 37.203C59.3143 37.6121 59.5481 38.0422 59.8223 38.4126C59.9792 38.6291 60.2523 38.7249 60.3119 39.078C60.0394 39.4672 60.0179 40.0547 59.8615 40.5433C59.1584 42.7515 59.4331 45.4871 60.4296 47.1099C60.7414 47.5985 61.4854 48.6741 62.4804 48.2618C63.3614 47.9103 63.1662 46.7965 63.4194 45.8198C63.4775 45.5839 63.4393 45.429 63.5565 45.2742V45.3123C63.8291 45.859 64.1042 46.3858 64.3569 46.9341C64.9632 47.8909 66.0189 48.8881 66.8984 49.5509C67.3666 49.9045 67.7375 50.5093 68.3239 50.7253V50.6667H68.2852C68.1665 50.4915 67.9928 50.413 67.8369 50.277C67.4843 49.9249 67.094 49.4949 66.8204 49.1046C66.0012 48.0097 65.2761 46.7976 64.6326 45.5467C64.3177 44.9399 64.0462 44.2765 63.7924 43.6707C63.6742 43.4369 63.6742 43.0843 63.478 42.9666C63.184 43.3961 62.7556 43.768 62.5411 44.2943C62.1691 45.136 62.1304 46.1714 61.9923 47.248L61.9154 47.2857C61.2928 47.1292 61.0763 46.4852 60.8398 45.9385C60.2544 44.5501 60.156 42.3215 60.664 40.7196C60.8 40.31 61.3886 39.0199 61.1537 38.6297C61.036 38.2556 60.6447 38.0427 60.4302 37.7482C60.178 37.3778 59.9018 36.909 59.726 36.4978C59.2573 35.4039 59.0213 34.1918 58.5165 33.0984C58.2806 32.5889 57.8709 32.0616 57.5393 31.5923C57.1668 31.065 56.7572 30.6935 56.4626 30.0684C56.3653 29.8534 56.2288 29.5018 56.3852 29.268C56.4234 29.111 56.5029 29.0524 56.6588 29.0132C56.912 28.7992 57.6355 29.0713 57.8892 29.189C58.6138 29.4819 59.2196 29.7555 59.8244 30.1657C60.098 30.3619 60.3915 30.7333 60.7425 30.8311H61.1537C61.7778 30.9671 62.4814 30.8688 63.0689 31.0456C64.1042 31.3783 65.0422 31.8664 65.8834 32.3932C68.4432 34.0166 70.5541 36.3231 71.9792 39.078C72.213 39.5269 72.3124 39.9381 72.5258 40.4063C72.9376 41.3647 73.4466 42.3419 73.8552 43.2799C74.2658 44.198 74.6571 45.1355 75.2436 45.8983C75.536 46.3084 76.711 46.5234 77.2378 46.7384C77.6276 46.9137 78.2344 47.0696 78.586 47.2846C79.2509 47.6942 79.9132 48.1645 80.5384 48.615C80.8496 48.8493 81.8279 49.338 81.886 49.7293ZM61.951 32.7458C61.6811 32.743 61.4122 32.7761 61.1511 32.8442V32.8834H61.1887C61.3462 33.1957 61.6198 33.4123 61.8149 33.6849C61.9724 33.9983 62.1089 34.309 62.2633 34.6218L62.3009 34.5831C62.5766 34.388 62.7137 34.0752 62.7137 33.6059C62.595 33.4678 62.5766 33.3328 62.4778 33.1957C62.3627 33.0001 62.1089 32.9028 61.951 32.7458Z" fill="#5D87A1"/>
<path d="M83.7473 71.3195H84.1523V69.3379H83.5449L83.0495 70.6902L82.5112 69.3379H81.9263V71.3195H82.3087V69.8118H82.3301L82.8941 71.3195H83.1855L83.7473 69.8118V71.3195ZM80.4855 71.3195H80.914V69.6737H81.4748V69.3373H79.9012V69.6737H80.4845L80.4855 71.3195Z" fill="#F8981D"/>
</g>
<defs>
<clipPath id="clip0_123_199">
<rect width="100" height="100" fill="white" transform="translate(0.25)"/>
</clipPath>
</defs>
</svg>
