<?xml version="1.0" encoding="iso-8859-1"?>
<!-- Generator: Adobe Illustrator 19.0.0, SVG Export Plug-In . SVG Version: 6.00 Build 0)  -->
<svg version="1.1" id="Layer_1" xmlns="http://www.w3.org/2000/svg" xmlns:xlink="http://www.w3.org/1999/xlink" x="0px" y="0px"
	 viewBox="0 0 508.391 508.391" style="enable-background:new 0 0 508.391 508.391;" xml:space="preserve">
<g transform="translate(1 1)">
	<polygon style="fill:#E2E3E5;" points="255.184,275.97 37.11,239.941 507.391,23.763 279.836,482.667 	"/>
	<polygon style="fill:#CCCCCC;" points="226.739,275.97 8.665,239.941 478.947,23.763 251.391,482.667 	"/>
	<path style="fill:#E2E3E5;" d="M430.591,40.83c0,1.896-1.896,3.793-4.741,5.689c-24.652,13.274-50.252,23.704-76.8,32.237
		c-31.289,13.274-63.526,26.548-92.919,43.615c-30.341,17.067-57.837,28.444-90.074,40.77
		c-33.185,12.326-61.63,35.081-94.815,46.459c-1.896,0.948-3.793,0.948-5.689,0L8.665,239.941l197.215,30.341l0.948,3.793
		c0.948,0,1.896-0.948,3.793-0.948c7.585,0,11.378,7.585,9.481,13.274c10.43,15.17,7.585,35.081,8.533,53.096
		c0.948,32.237,8.533,63.526,17.067,93.867L441.021,37.037C438.176,37.985,434.384,39.881,430.591,40.83"/>
	<path style="fill:#B6B6B6;" d="M251.391,492.148c-0.948,0-0.948,0-1.896,0c-3.793-0.948-7.585-3.793-7.585-8.533l-23.704-199.111
		L6.769,249.422c-3.793-0.948-7.585-3.793-7.585-8.533c-0.948-3.793,1.896-8.533,5.689-9.481L475.154,15.23
		c3.793-1.896,7.585-0.948,10.43,1.896c2.844,2.844,3.793,7.585,1.896,10.43L259.924,486.459
		C258.976,490.252,255.184,492.148,251.391,492.148z M40.902,235.2l187.733,31.289c3.793,0.948,7.585,3.793,7.585,8.533
		L257.08,450.43L459.036,43.674L40.902,235.2z"/>
</g>
<g>
</g>
<g>
</g>
<g>
</g>
<g>
</g>
<g>
</g>
<g>
</g>
<g>
</g>
<g>
</g>
<g>
</g>
<g>
</g>
<g>
</g>
<g>
</g>
<g>
</g>
<g>
</g>
<g>
</g>
</svg>
