<svg width="101" height="100" viewBox="0 0 101 100" fill="none" xmlns="http://www.w3.org/2000/svg">
<path d="M98.3591 59.8811C97.7776 58.1201 96.2545 56.8936 94.2848 56.5992C93.356 56.4606 92.2924 56.5197 91.0337 56.7792C88.8398 57.2318 87.2121 57.4042 86.0242 57.4375C90.5079 49.8674 94.1538 41.2349 96.2526 33.1087C99.6466 19.9689 97.8329 13.983 95.7136 11.2754C90.1049 4.10872 81.922 0.258717 72.05 0.140914C66.7837 0.0765197 62.1606 1.11629 59.7489 1.86402C57.5034 1.46781 55.089 1.2466 52.5557 1.20569C47.8068 1.12993 43.611 2.16516 40.0258 4.29281C38.0409 3.6216 34.8553 2.67538 31.1765 2.0716C22.5242 0.651141 15.5508 1.75796 10.45 5.36137C4.27348 9.72425 1.41023 17.3046 1.93977 27.8917C2.10795 31.253 3.98826 41.4803 6.94886 51.1796C8.65038 56.7545 10.4648 61.3841 12.3417 64.9409C15.0034 69.9845 17.8515 72.9546 21.0489 74.0212C22.8409 74.6182 26.097 75.0364 29.5216 72.1841C29.9557 72.7098 30.5348 73.2322 31.3034 73.7174C32.2795 74.333 33.4731 74.836 34.6651 75.1341C38.961 76.208 42.9848 75.9394 46.4178 74.4341C46.439 75.0447 46.4553 75.628 46.4689 76.1318C46.4917 76.9489 46.5144 77.75 46.5443 78.4992C46.7477 83.5652 47.0924 87.5042 48.1136 90.2602C48.1697 90.4117 48.2451 90.6428 48.3246 90.8879C48.8341 92.4477 49.686 95.0591 51.8534 97.1042C54.0977 99.2227 56.8125 99.8724 59.2989 99.8724C60.5458 99.8724 61.7356 99.7087 62.7792 99.4852C66.4989 98.6879 70.7235 97.4735 73.7795 93.122C76.6689 89.0083 78.0735 82.8125 78.3276 73.05C78.3606 72.7739 78.3909 72.5102 78.4201 72.2591L78.4807 71.7432L79.1614 71.803L79.3367 71.8148C83.1254 71.9875 87.7579 71.1841 90.603 69.8625C92.8511 68.8193 100.055 65.0159 98.3591 59.8811Z" fill="black"/>
<path d="M91.881 60.8796C80.6159 63.2034 79.8413 59.3894 79.8413 59.3894C91.7352 41.7405 96.7076 19.3379 92.417 13.8549C80.711 -1.10151 60.4477 5.97197 60.1095 6.15531L60.0007 6.175C57.775 5.71288 55.2845 5.43788 52.4848 5.39205C47.3879 5.30871 43.5212 6.72841 40.5871 8.95341C40.5871 8.95341 4.43939 -5.93826 6.12083 27.6822C6.4784 34.8345 16.3723 81.8008 28.1731 67.6148C32.4864 62.4273 36.6542 58.0413 36.6542 58.0413C38.7239 59.4163 41.2019 60.1178 43.7996 59.8659L44.0015 59.6947C43.9386 60.3386 43.9674 60.9686 44.0822 61.7144C41.042 65.111 41.9356 65.7072 35.8583 66.9583C29.7087 68.2258 33.3212 70.4818 35.6799 71.072C38.5394 71.7868 45.1545 72.7996 49.6242 66.5424L49.4462 67.2564C50.6371 68.2106 51.4735 73.4621 51.3333 78.2231C51.1932 82.9837 51.0996 86.2523 52.0379 88.8053C52.9769 91.3583 53.9121 97.1027 61.9015 95.3909C68.5769 93.9602 72.0363 90.253 72.5178 84.0689C72.8591 79.6727 73.6322 80.3227 73.6807 76.3921L74.3007 74.5314C75.0155 68.572 74.4144 66.6492 78.5269 67.5436L79.5269 67.6314C82.5534 67.7689 86.5155 67.1443 88.8409 66.0636C93.8477 63.7402 96.8174 59.8602 91.8803 60.8796H91.881Z" fill="#336791"/>
<path d="M42.703 30.8807C41.6879 30.7394 40.7686 30.8701 40.3034 31.2223C40.042 31.4204 39.961 31.65 39.939 31.8079C39.8807 32.2265 40.1739 32.6894 40.3542 32.928C40.864 33.6038 41.6087 34.0682 42.3458 34.1704C42.4526 34.1856 42.5591 34.1924 42.6648 34.1924C43.8939 34.1924 45.0117 33.2352 45.1102 32.5288C45.2333 31.6439 43.9489 31.0542 42.703 30.8811V30.8807ZM76.3333 30.9087C76.2364 30.2151 75.0023 30.0174 73.8311 30.1803C72.6614 30.3432 71.5273 30.8712 71.622 31.5663C71.6977 32.1068 72.6739 33.0295 73.8292 33.0295C73.9269 33.0295 74.0254 33.0231 74.1246 33.0091C74.8958 32.9023 75.4617 32.4125 75.7307 32.1303C76.1398 31.7 76.3769 31.2204 76.3333 30.9087Z" fill="white"/>
<path d="M95.6295 60.6155C95.2 59.3167 93.8174 58.8989 91.5204 59.3731C84.7004 60.7807 82.2579 59.8057 81.4561 59.2151C86.7572 51.1394 91.1182 41.3773 93.4708 32.2693C94.5852 27.9549 95.2008 23.9481 95.2511 20.6822C95.3068 17.0977 94.6962 14.4636 93.4371 12.8545C88.3606 6.3678 80.9098 2.88825 71.8909 2.7928C65.6905 2.7231 60.4519 4.30984 59.4364 4.75606C57.2977 4.22424 54.9663 3.89772 52.428 3.85606C47.7735 3.78068 43.75 4.89507 40.4189 7.16666C38.972 6.62803 35.2326 5.34431 30.6595 4.60757C22.7534 3.33484 16.4708 4.29924 11.9875 7.47538C6.63787 11.2655 4.16817 18.0405 4.64658 27.6117C4.80757 30.8318 6.64241 40.7379 9.53787 50.2246C13.3492 62.711 17.4924 69.7795 21.8515 71.2337C22.3617 71.4038 22.95 71.5227 23.5989 71.5227C25.189 71.5227 27.1386 70.8061 29.167 68.3674C31.6411 65.3994 34.2004 62.5035 36.8417 59.6833C38.5553 60.603 40.4379 61.1167 42.3633 61.1682C42.367 61.2186 42.372 61.2689 42.3765 61.3189C42.0451 61.7142 41.7205 62.1151 41.403 62.5216C40.0689 64.2151 39.7913 64.5678 35.497 65.4519C34.2754 65.7042 31.0311 66.3727 30.9833 68.647C30.9318 71.1318 34.8186 72.1754 35.2614 72.286C36.8045 72.6723 38.2913 72.8629 39.7091 72.8629C43.1572 72.8629 46.1917 71.7295 48.6167 69.5367C48.542 78.3951 48.9114 87.1239 49.975 89.7833C50.8462 91.9606 52.9742 97.2814 59.6962 97.2811C60.6826 97.2811 61.7682 97.1663 62.9625 96.9102C69.978 95.4064 73.0246 92.3057 74.203 85.4697C74.8337 81.8163 75.9159 73.0924 76.425 68.4129C77.4992 68.7481 78.8822 68.9015 80.3773 68.9011C83.4954 68.9011 87.0936 68.2386 89.35 67.1913C91.8848 66.014 96.4591 63.1254 95.6295 60.6155ZM78.9227 28.9943C78.8996 30.3758 78.7095 31.6299 78.5079 32.939C78.2909 34.347 78.0667 35.8026 78.0102 37.5697C77.9545 39.2894 78.1693 41.0773 78.3769 42.8064C78.7966 46.2989 79.2273 49.8943 77.5602 53.442C77.2833 52.9514 77.0366 52.4442 76.8216 51.9235C76.6144 51.4212 76.1644 50.6144 75.5413 49.4977C73.1174 45.1507 67.4413 34.9712 70.347 30.8174C71.2125 29.5811 73.4091 28.3098 78.9227 28.9943ZM72.2394 5.59015C80.3204 5.76856 86.7129 8.79166 91.2386 14.575C94.7098 19.011 90.8875 39.1954 79.822 56.6087C79.7107 56.4672 79.5988 56.3262 79.4864 56.1856L79.3462 56.0106C82.2057 51.2882 81.6466 46.6159 81.1489 42.4735C80.9443 40.7735 80.7511 39.1678 80.8004 37.6595C80.8511 36.061 81.0625 34.6898 81.267 33.364C81.5182 31.7303 81.7739 30.0398 81.7034 28.047C81.7561 27.8379 81.7773 27.5909 81.7496 27.2977C81.5697 25.3867 79.3879 19.6674 74.9409 14.4909C72.5083 11.6595 68.961 8.49091 64.1174 6.35378C66.2008 5.92197 69.0496 5.51931 72.2394 5.59015ZM27.0204 66.5826C24.7856 69.2697 23.2424 68.7545 22.7348 68.5856C19.428 67.4826 15.5909 60.4932 12.2079 49.4098C9.28067 39.8197 7.57007 30.1761 7.43446 27.472C7.00719 18.9197 9.08029 12.9595 13.5966 9.75644C20.9466 4.54431 33.0307 7.66401 37.8864 9.24621C37.8167 9.31515 37.7439 9.37954 37.675 9.44962C29.7068 17.4966 29.8958 31.2451 29.9155 32.0856C29.9148 32.4098 29.942 32.8689 29.9792 33.5004C30.1163 35.8129 30.3716 40.1167 29.6898 44.9905C29.0564 49.5197 30.4526 53.9526 33.5197 57.153C33.8345 57.4808 34.1653 57.7928 34.511 58.0879C33.1458 59.55 30.1788 62.7833 27.0204 66.5826ZM35.5352 55.2216C33.0632 52.642 31.9405 49.0542 32.4545 45.3769C33.1742 40.2284 32.9087 35.7443 32.7659 33.3352C32.7458 32.9981 32.728 32.7026 32.7178 32.4697C33.8818 31.4375 39.2761 28.5473 43.1231 29.4288C44.8784 29.8307 45.9481 31.0261 46.3928 33.0822C48.6943 43.7273 46.6973 48.164 45.0928 51.7295C44.7621 52.464 44.4496 53.1583 44.1829 53.8765L43.9761 54.4318C43.4526 55.8356 42.9655 57.1409 42.6636 58.3803C40.0356 58.3727 37.4792 57.25 35.5352 55.2212V55.2216ZM35.9386 69.5776C35.1712 69.386 34.4811 69.053 34.0761 68.7769C34.4144 68.6178 35.0163 68.4011 36.0602 68.186C41.1121 67.1462 41.8924 66.4121 43.5962 64.2489C43.9867 63.7526 44.4295 63.1905 45.0428 62.5057L45.0436 62.5049C45.9568 61.4822 46.3746 61.6557 47.1322 61.9701C47.7462 62.2239 48.3443 62.9936 48.5867 63.8405C48.7015 64.2405 48.8303 64.9996 48.4087 65.5905C44.8496 70.5739 39.6632 70.5098 35.9386 69.5776ZM62.3776 94.1807C56.1973 95.5049 54.0091 92.3515 52.567 88.7466C51.6364 86.4193 51.1788 75.9246 51.5034 64.3348C51.5076 64.1807 51.4856 64.0318 51.4432 63.8917C51.4052 63.6149 51.3475 63.3412 51.2704 63.0727C50.7879 61.3864 49.6117 59.9758 48.2007 59.3909C47.6401 59.1587 46.6114 58.7326 45.375 59.0489C45.6386 57.9625 46.0958 56.7356 46.5917 55.4072L46.7996 54.8485C47.0337 54.2186 47.3276 53.5659 47.6383 52.875C49.3174 49.1447 51.617 44.0352 49.1212 32.4924C48.1864 28.1689 45.0644 26.0576 40.3318 26.5481C37.4947 26.8417 34.8989 27.9864 33.6042 28.6428C33.3258 28.7837 33.0712 28.9201 32.8333 29.0526C33.1947 24.6966 34.5598 16.5557 39.6667 11.4049C42.8822 8.1625 47.1644 6.56098 52.3818 6.64734C62.6621 6.81553 69.2545 12.0913 72.975 16.4879C76.1811 20.2761 77.917 24.0924 78.6098 26.1508C73.3996 25.6208 69.8561 26.6492 68.0598 29.2174C64.1519 34.8038 70.1977 45.6462 73.1034 50.8572C73.6364 51.8121 74.0962 52.6375 74.2409 52.9883C75.1871 55.2814 76.4121 56.8125 77.3064 57.9299C77.5807 58.2723 77.8466 58.6045 78.0489 58.8947C76.4708 59.3496 73.6364 60.4007 73.8947 65.6549C73.6864 68.2913 72.2049 80.6345 71.4523 84.9954C70.4587 90.7568 68.3386 92.9026 62.3776 94.1811V94.1807ZM88.1746 64.6595C86.561 65.4083 83.8606 65.9701 81.2955 66.0909C78.4621 66.2235 77.0197 65.7735 76.6803 65.4966C76.5212 62.2223 77.7398 61.8803 79.0295 61.5182C79.2322 61.4614 79.4299 61.4057 79.6208 61.339C79.7394 61.4356 79.8693 61.5314 80.0117 61.6254C82.289 63.1284 86.3508 63.2905 92.0852 62.1068L92.1481 62.0943C91.3746 62.8174 90.0511 63.7879 88.1746 64.6595Z" fill="white"/>
</svg>
