<svg width="101" height="100" viewBox="0 0 101 100" fill="none" xmlns="http://www.w3.org/2000/svg">
<g clip-path="url(#clip0_123_147)">
<path d="M82.4701 34.3061C81.4327 33.949 80.3578 33.6112 79.251 33.2917C79.4329 32.5493 79.5998 31.8164 79.7483 31.0961C82.1851 19.2675 80.5918 9.73838 75.1513 6.60097C69.9345 3.59262 61.4029 6.72931 52.7863 14.228C51.9577 14.9491 51.1268 15.7125 50.2963 16.5127C49.7429 15.9833 49.1904 15.4717 48.6393 14.9824C39.6089 6.96427 30.5573 3.58532 25.1221 6.7318C19.9103 9.74888 18.3669 18.7072 20.5604 29.9172C20.7722 31 21.0198 32.1057 21.2998 33.2299C20.0187 33.5936 18.782 33.9813 17.5986 34.3937C7.01146 38.0848 0.25 43.8698 0.25 49.8703C0.25 56.0677 7.50843 62.2838 18.5358 66.0529C19.406 66.3503 20.309 66.6316 21.2396 66.8986C20.9375 68.1145 20.6748 69.306 20.4543 70.4681C18.3628 81.4836 19.9961 90.2303 25.194 93.2283C30.563 96.3244 39.5736 93.142 48.3477 85.4724C49.0412 84.8661 49.7372 84.2232 50.4344 83.5493C51.3381 84.4195 52.2404 85.2431 53.1379 86.0156C61.6366 93.329 70.0305 96.2822 75.2236 93.2758C80.5872 90.1708 82.3303 80.7748 80.0673 69.343C79.8944 68.4699 79.6933 67.578 79.4674 66.6702C80.1002 66.4831 80.7214 66.29 81.3271 66.0892C92.7911 62.2909 100.25 56.1505 100.25 49.8703C100.25 43.8481 93.2705 38.0241 82.4701 34.3061ZM79.9836 62.0342C79.4368 62.2152 78.8757 62.3902 78.304 62.5598C77.0384 58.5533 75.3304 54.2929 73.2401 49.8911C75.2348 45.5942 76.8768 41.3883 78.107 37.4077C79.1299 37.7037 80.1228 38.016 81.0795 38.3454C90.3333 41.5311 95.978 46.2411 95.978 49.8703C95.978 53.7361 89.8819 58.7544 79.9836 62.0342ZM75.8765 70.1727C76.8772 75.2276 77.0201 79.7979 76.3572 83.3707C75.7617 86.5811 74.5639 88.7215 73.083 89.5788C69.9315 91.4029 63.1921 89.0318 55.9239 82.7773C55.0907 82.0603 54.2514 81.2947 53.4095 80.4845C56.2272 77.4028 59.0433 73.8202 61.7918 69.8414C66.6261 69.4124 71.1933 68.7111 75.3352 67.7537C75.5392 68.5765 75.7204 69.3836 75.8765 70.1727ZM34.3423 89.2635C31.2632 90.3509 28.811 90.3821 27.3286 89.5273C24.1743 87.708 22.8629 80.6853 24.6517 71.2649C24.8565 70.186 25.1004 69.0778 25.3815 67.945C29.4779 68.8508 34.0117 69.5027 38.8576 69.8955C41.6245 73.7889 44.522 77.3675 47.4419 80.501C46.8039 81.1169 46.1685 81.7032 45.5366 82.2557C41.6568 85.6471 37.7687 88.0533 34.3423 89.2635ZM19.9174 62.0105C15.0413 60.3439 11.0145 58.1779 8.25424 55.8142C5.77401 53.6902 4.52179 51.5814 4.52179 49.8703C4.52179 46.229 9.95057 41.5845 19.0048 38.4277C20.1034 38.0446 21.2535 37.6836 22.447 37.3445C23.6983 41.415 25.3398 45.6708 27.3207 49.9743C25.3142 54.3416 23.6493 58.6652 22.3857 62.7834C21.5349 62.5388 20.7106 62.2814 19.9174 62.0105ZM24.7528 29.0968C22.8735 19.4923 24.1216 12.2471 27.2624 10.429C30.6078 8.49221 38.0056 11.2537 45.8027 18.1769C46.3011 18.6194 46.8015 19.0826 47.3032 19.5618C44.3978 22.6815 41.5268 26.2333 38.7844 30.1037C34.0813 30.5397 29.5794 31.2399 25.4402 32.1776C25.18 31.1308 24.9494 30.1023 24.7528 29.0968ZM67.8882 39.7481C66.8988 38.0389 65.8829 36.3702 64.8473 34.747C68.0379 35.1504 71.0949 35.6858 73.9657 36.341C73.1038 39.1032 72.0296 41.9912 70.7651 44.9519C69.858 43.2297 68.8986 41.4933 67.8882 39.7481ZM50.2977 22.6148C52.2681 24.7495 54.2414 27.1329 56.1823 29.7189C54.2265 29.6265 52.2464 29.5785 50.25 29.5785C48.2724 29.5785 46.307 29.6255 44.3632 29.7162C46.3061 27.1543 48.2965 24.7741 50.2977 22.6148ZM32.5945 39.7776C31.6061 41.4916 30.6645 43.2185 29.7716 44.9487C28.5276 41.9983 27.4633 39.0971 26.594 36.2958C29.4471 35.6573 32.4897 35.1352 35.66 34.7395C34.6098 36.3777 33.5856 38.0587 32.5945 39.7773V39.7776ZM35.7513 65.3058C32.4758 64.9404 29.3875 64.4452 26.5351 63.8243C27.4183 60.973 28.506 58.0098 29.7764 54.996C30.6716 56.7249 31.6169 58.4525 32.6114 60.1702H32.6116C33.6246 61.9201 34.674 63.6342 35.7513 65.3058ZM50.4159 77.427C48.3912 75.2424 46.3716 72.8259 44.3992 70.2266C46.3139 70.3017 48.266 70.3402 50.25 70.3402C52.2883 70.3402 54.3032 70.2942 56.2865 70.2059C54.3392 72.8521 52.373 75.2723 50.4159 77.427ZM70.8058 54.8423C72.1424 57.8888 73.2691 60.8365 74.1638 63.6392C71.2643 64.3007 68.1339 64.8334 64.8356 65.2293C65.8737 63.5842 66.8984 61.8868 67.9053 60.1408C68.924 58.3744 69.8913 56.6052 70.8058 54.8423ZM64.2049 58.0066C62.6417 60.717 61.0369 63.3044 59.4077 65.7467C56.4403 65.9589 53.3746 66.0682 50.25 66.0682C47.1381 66.0682 44.111 65.9715 41.1961 65.7823C39.5012 63.308 37.8615 60.7129 36.3083 58.0299H36.3086C34.7595 55.3543 33.3337 52.656 32.0418 49.9728C33.3334 47.2835 34.7554 44.5821 36.2956 41.9113L36.2953 41.9118C37.8396 39.2338 39.4649 36.6514 41.1441 34.1925C44.1181 33.9677 47.1678 33.8504 50.2498 33.8504H50.25C53.3459 33.8504 56.3995 33.9686 59.3726 34.1954C61.0262 36.6363 62.6405 39.2103 64.1909 41.8887C65.7588 44.5971 67.1992 47.2804 68.5018 49.9121C67.2031 52.5891 65.766 55.2994 64.2049 58.0066ZM73.0175 10.3019C76.3661 12.233 77.6684 20.0212 75.5644 30.2339C75.4302 30.8855 75.2791 31.5493 75.115 32.2219C70.9662 31.2646 66.461 30.5523 61.7443 30.1098C58.9965 26.1968 56.1491 22.6395 53.2909 19.5598C54.0593 18.8206 54.8267 18.1157 55.5909 17.4505C62.9735 11.0257 69.8736 8.48901 73.0175 10.3019ZM50.25 40.9407C55.1816 40.9407 59.1797 44.9385 59.1797 49.8703C59.1797 54.8019 55.1816 58.8 50.25 58.8C45.3184 58.8 41.3203 54.8019 41.3203 49.8703C41.3203 44.9385 45.3184 40.9407 50.25 40.9407Z" fill="#00D8FF"/>
</g>
<defs>
<clipPath id="clip0_123_147">
<rect width="100" height="100" fill="white" transform="translate(0.25)"/>
</clipPath>
</defs>
</svg>
