<svg width="101" height="100" viewBox="0 0 101 100" fill="none" xmlns="http://www.w3.org/2000/svg">
<path d="M90.9063 15.7188L72.8875 7.04375C71.87 6.55312 70.725 6.39121 69.6112 6.58047C68.4975 6.76973 67.4703 7.30078 66.6719 8.1L7.68753 61.875C6.97188 62.5244 6.54349 63.4314 6.4966 64.3967C6.44972 65.3619 6.78818 66.3062 7.43753 67.0219C7.51565 67.1063 7.59378 67.1875 7.67815 67.2625L12.4938 71.6375C13.123 72.2102 13.933 72.5444 14.783 72.5821C15.6331 72.6198 16.4694 72.3585 17.1469 71.8438L88.1938 17.9688C88.7304 17.5615 89.3701 17.3122 90.0407 17.2488C90.7114 17.1854 91.3864 17.3105 91.9899 17.6099C92.5933 17.9094 93.1012 18.3713 93.4563 18.9437C93.8114 19.5162 93.9997 20.1764 94 20.85V20.6406C94 19.6122 93.7096 18.6047 93.1623 17.734C92.615 16.8632 91.833 16.1647 90.9063 15.7188Z" fill="#0065A9"/>
<path d="M90.9063 84.2812L72.8875 92.9594C71.8697 93.4486 70.725 93.6098 69.6116 93.4206C68.4982 93.2314 67.471 92.7011 66.6719 91.9031L7.68753 38.125C6.97188 37.4756 6.54349 36.5686 6.4966 35.6033C6.44972 34.6381 6.78818 33.6938 7.43753 32.9781C7.51565 32.8938 7.59378 32.8125 7.67815 32.7375L12.4938 28.3625C13.1237 27.7874 13.9355 27.4517 14.7876 27.414C15.6398 27.3763 16.4781 27.639 17.1563 28.1563L88.1938 82.0313C88.7304 82.4385 89.3701 82.6878 90.0407 82.7512C90.7114 82.8146 91.3864 82.6895 91.9899 82.3901C92.5933 82.0906 93.1012 81.6287 93.4563 81.0563C93.8114 80.4838 93.9997 79.8236 94 79.15V79.375C93.9967 80.4007 93.7048 81.4048 93.1577 82.2724C92.6106 83.14 91.8304 83.8361 90.9063 84.2812Z" fill="#007ACC"/>
<path d="M72.8875 92.9594C71.8696 93.4486 70.7249 93.6098 69.6116 93.4206C68.4982 93.2314 67.471 92.7011 66.6719 91.9031C67.1206 92.346 67.6901 92.6467 68.309 92.7673C68.9279 92.8879 69.5686 92.8232 70.1509 92.5813C70.7331 92.3394 71.231 91.931 71.5822 91.4074C71.9334 90.8837 72.1222 90.268 72.125 89.6375V10.3625C72.1255 9.72902 71.938 9.10965 71.5862 8.58283C71.2344 8.05601 70.7342 7.64545 70.1489 7.40316C69.5636 7.16087 68.9196 7.09776 68.2983 7.22181C67.6771 7.34586 67.1067 7.65149 66.6594 8.1C67.4579 7.30106 68.4849 6.76998 69.5984 6.5802C70.7119 6.39041 71.8569 6.5513 72.875 7.04062L90.8906 15.7031C91.8202 16.1469 92.6055 16.8444 93.1556 17.7153C93.7058 18.5862 93.9985 19.5949 94 20.625V79.375C94.0002 80.4043 93.7097 81.4127 93.1618 82.2841C92.6138 83.1554 91.8309 83.8542 90.9031 84.3L72.8875 92.9594Z" fill="#1F9CF0"/>
</svg>
