<svg width="101" height="100" viewBox="0 0 101 100" fill="none" xmlns="http://www.w3.org/2000/svg">
<g clip-path="url(#clip0_132_25)">
<path d="M0.251678 49.9983C0.251678 69.7873 11.7523 86.8927 28.4327 94.9957L4.58134 29.651C1.80801 35.869 0.251678 42.75 0.251678 49.9983ZM84.003 47.4763C84.003 41.295 81.7827 37.0173 79.8807 33.6877C77.3467 29.567 74.971 26.082 74.971 21.961C74.971 17.365 78.454 13.0873 83.3657 13.0873C83.5883 13.0873 83.7993 13.1143 84.0133 13.128C75.1193 4.97733 63.2663 0 50.25 0C32.7823 0 17.4157 8.96333 8.47468 22.5343C9.64968 22.573 10.7557 22.597 11.693 22.597C16.9213 22.597 25.0197 21.9613 25.0197 21.9613C27.714 21.8027 28.0307 25.7633 25.3383 26.082C25.3383 26.082 22.6287 26.399 19.6173 26.556L37.8237 80.7153L48.766 47.8997L40.9767 26.5557C38.2823 26.3987 35.7333 26.0817 35.7333 26.0817C33.039 25.9217 33.354 21.8023 36.05 21.961C36.05 21.961 44.3053 22.5967 49.2183 22.5967C54.447 22.5967 62.545 21.961 62.545 21.961C65.2393 21.8023 65.558 25.763 62.8637 26.0817C62.8637 26.0817 60.151 26.3987 57.143 26.5557L75.2107 80.3017L80.198 63.6403C82.7333 57.1423 84.003 51.7553 84.003 47.4763ZM51.1287 54.372L36.126 97.9633C40.6057 99.2803 45.3433 100 50.25 100C56.0737 100 61.658 98.995 66.8543 97.1657C66.7227 96.9513 66.598 96.7243 66.497 96.4763L51.1287 54.372ZM94.1247 26.0127C94.3403 27.604 94.462 29.312 94.462 31.1533C94.462 36.225 93.5107 41.9287 90.658 49.061L75.3873 93.214C90.2533 84.5473 100.248 68.4437 100.248 49.9987C100.248 41.305 98.026 33.1327 94.1247 26.0127Z" fill="black"/>
</g>
<defs>
<clipPath id="clip0_132_25">
<rect width="100" height="100" fill="white" transform="translate(0.25)"/>
</clipPath>
</defs>
</svg>
